<?xml version="1.0" encoding="utf-8"?>
<!-- Generator: Adobe Illustrator 16.0.0, SVG Export Plug-In . SVG Version: 6.00 Build 0)  -->
<!DOCTYPE svg PUBLIC "-//W3C//DTD SVG 1.1//EN" "http://www.w3.org/Graphics/SVG/1.1/DTD/svg11.dtd">
<svg version="1.1" id="Layer_1" xmlns="http://www.w3.org/2000/svg" xmlns:xlink="http://www.w3.org/1999/xlink" x="0px" y="0px"
	 width="260px" height="78px" viewBox="0 0 260 78" enable-background="new 0 0 260 78" xml:space="preserve">
<g>
	<path fill-rule="evenodd" clip-rule="evenodd" fill="#EC5C0B" d="M40.261,10.486c0.078,0.073,0.147,0.159,0.233,0.217
		c0.076,0.052,0.167,0.089,0.257,0.108c0.195,0.04,0.351,0.127,0.47,0.293c0.241,0.336,0.438,0.693,0.609,1.067
		c0.082,0.177,0.052,0.354,0.036,0.53c-0.038,0.45-0.083,0.898-0.251,1.324c-0.059,0.15-0.051,0.295,0.052,0.427
		c0.083,0.107,0.094,0.221,0.059,0.353c-0.181,0.646-0.157,1.298-0.049,1.953c0.003,0.014,0.007,0.028,0.011,0.042
		c0.003,0.007,0.009,0.011,0.016,0.02c0.053-0.056,0.103-0.114,0.158-0.167c0.081-0.08,0.177-0.119,0.293-0.134
		c0.082-0.011,0.166-0.051,0.24-0.095c0.106-0.065,0.2-0.147,0.303-0.218c0.162-0.111,0.25-0.264,0.271-0.458
		c0.032-0.286,0.185-0.515,0.348-0.736c0.091-0.121,0.167-0.126,0.264-0.024c0.434,0.454,0.688,0.986,0.643,1.625
		c-0.01,0.136-0.075,0.274-0.137,0.4c-0.059,0.118-0.092,0.233-0.104,0.364c-0.015,0.155-0.054,0.308-0.096,0.459
		c-0.067,0.246-0.162,0.486-0.217,0.736c-0.039,0.18-0.015,0.376-0.056,0.555c-0.066,0.277-0.166,0.547-0.249,0.819
		c-0.071,0.231-0.144,0.462-0.205,0.695c-0.022,0.089-0.06,0.127-0.151,0.141c-0.166,0.024-0.183,0.06-0.123,0.22
		c0.05,0.137,0.103,0.274,0.159,0.41c0.032,0.078,0.004,0.111-0.07,0.121c-0.048,0.005-0.098,0.001-0.144,0.011
		c-0.04,0.01-0.085,0.023-0.119,0.05c-0.066,0.054-0.163,0.042-0.178-0.04c-0.031-0.164-0.114-0.234-0.284-0.215
		c-0.098,0.01-0.197-0.003-0.295-0.001c-0.082,0.001-0.167,0.001-0.204,0.097c-0.004,0.011-0.022,0.018-0.036,0.022
		c-0.327,0.127-0.639,0.3-1.004,0.29c-0.025,0-0.049,0.012-0.075,0.018c-0.315,0-0.63,0-0.946,0c-0.116-0.01-0.234-0.01-0.348-0.033
		c-0.22-0.042-0.438-0.089-0.651-0.152c-0.228-0.064-0.446-0.14-0.688-0.058c-0.104,0.036-0.283-0.069-0.335-0.201
		c-0.083-0.195-0.159-0.395-0.216-0.599c-0.05-0.177-0.021-0.211,0.147-0.282c0.193-0.081,0.385-0.163,0.574-0.25
		c0.127-0.061,0.14-0.096,0.091-0.227c-0.036-0.1-0.079-0.198-0.125-0.293c-0.051-0.1-0.132-0.164-0.233-0.222
		c-0.155-0.088-0.295-0.206-0.435-0.318c-0.026-0.02-0.04-0.081-0.033-0.117c0.031-0.144,0.025-0.282-0.032-0.419
		c-0.028-0.065-0.008-0.114,0.071-0.141c0.422-0.148,0.836-0.319,1.263-0.45c0.191-0.059,0.404-0.046,0.609-0.068
		c0.076-0.007,0.159-0.001,0.226-0.032c0.076-0.035,0.164-0.088,0.197-0.159c0.082-0.17,0.165-0.346,0.14-0.546
		c-0.035-0.276,0.055-0.518,0.201-0.749c0.087-0.14,0.168-0.283,0.242-0.43c0.081-0.152,0.079-0.308,0.007-0.466
		c-0.128-0.286-0.293-0.548-0.502-0.784c-0.101-0.116-0.225-0.159-0.377-0.169c-0.479-0.028-0.958-0.062-1.436-0.109
		c-0.102-0.008-0.203-0.065-0.291-0.117c-0.204-0.116-0.399-0.244-0.608-0.375c-0.022,0.103,0.013,0.22-0.106,0.3
		c-0.023-0.08-0.042-0.145-0.066-0.224c-0.086,0.092-0.17,0.166-0.133,0.305c0.022,0.076,0.02,0.159,0.029,0.238
		c-0.011,0.003-0.02,0.005-0.03,0.008c-0.016-0.022-0.032-0.043-0.05-0.066c-0.012,0.011-0.032,0.025-0.065,0.049
		c-0.025-0.102-0.045-0.191-0.071-0.292c-0.025,0.047-0.047,0.087-0.069,0.127c-0.01-0.001-0.02-0.002-0.029-0.004
		c0.005-0.051-0.005-0.109,0.02-0.148c0.122-0.195,0.247-0.388,0.379-0.573c0.063-0.087,0.154-0.068,0.241-0.033
		c0.238,0.093,0.477,0.189,0.717,0.28c0.409,0.152,0.827,0.173,1.255,0.073c0.185-0.043,0.375-0.06,0.539-0.086
		c-0.02-0.105-0.038-0.22-0.065-0.333c-0.013-0.052-0.041-0.1-0.061-0.151c-0.042-0.101-0.097-0.199-0.121-0.304
		c-0.063-0.256,0.007-0.423,0.245-0.537c0.141-0.068,0.302-0.112,0.46-0.128c0.175-0.02,0.322,0.053,0.437,0.204
		c0.063,0.085,0.166,0.139,0.269,0.22c-0.007,0.01-0.027,0.045-0.054,0.087c0.041,0.064,0.087,0.13,0.13,0.198
		c0.065,0.103,0.047,0.158-0.068,0.2c-0.076,0.026-0.153,0.051-0.232,0.067c-0.083,0.018-0.116,0.08-0.077,0.135
		c0.079,0.111,0.176,0.21,0.274,0.303c0.015,0.015,0.111-0.014,0.123-0.042c0.172-0.413,0.432-0.792,0.45-1.263
		c0.01-0.236-0.06-0.45-0.136-0.662c-0.078-0.21-0.173-0.412-0.274-0.611c-0.026-0.054-0.099-0.107-0.158-0.118
		c-0.15-0.028-0.305-0.032-0.457-0.048c-0.053-0.005-0.106-0.02-0.159-0.029c0-0.016,0-0.033,0-0.049
		c0.103-0.02,0.206-0.04,0.309-0.059c-0.005-0.177-0.146-0.177-0.272-0.192c0-0.009,0.001-0.017,0.003-0.026
		c0.034-0.023,0.069-0.046,0.094-0.063c-0.041-0.09-0.083-0.179-0.125-0.267C40.246,10.486,40.254,10.486,40.261,10.486z"/>
	<polygon fill="#0151A3" points="6.241,29.262 1.624,29.933 18.648,46.527 18.984,45.441 	"/>
	<polygon fill="#69B62A" points="16.631,68.128 15.733,73.36 36.995,62.185 35.544,61.16 	"/>
	<polygon fill="#5A2685" points="40.601,7.215 38.565,3.092 27.829,24.848 28.816,24.836 	"/>
	<polygon fill="#EC5C0B" points="71.787,33.562 75.509,29.933 50.959,26.366 51.452,27.817 	"/>
	<polygon fill="#FED504" points="57.229,49.058 55.61,50.268 56.405,70.737 61.397,73.36 	"/>
	<polygon fill="#B70F80" points="50.959,26.366 43.156,3.394 40.601,7.215 49.982,26.225 	"/>
	<polygon fill="#FAB202" points="57.229,49.058 76.274,34.831 71.787,33.562 57.037,47.938 	"/>
	<polygon fill="#C6D402" points="36.995,62.185 56.612,76.043 56.405,70.737 38.565,61.358 	"/>
	<polygon fill="#03A0DB" points="27.829,24.848 3.024,25.179 6.241,29.262 27.15,26.225 	"/>
	<polygon fill="#09A33A" points="18.648,46.527 11.341,70.078 16.631,68.128 20.095,47.938 	"/>
	<path fill="#342C8A" d="M38.479,22.231c-1.947,0-3.826,0.286-5.603,0.812c1.13-0.214,2.294-0.331,3.487-0.331
		c10.246,0,18.553,8.307,18.553,18.554c0,10.246-8.307,18.554-18.553,18.554c-5.308,0-10.091-2.232-13.474-5.805
		c3.608,4.652,9.248,7.65,15.59,7.65c10.888,0,19.717-8.827,19.717-19.717S49.367,22.231,38.479,22.231z"/>
	<path fill="#B70F80" d="M21.691,47.803c-2.549-5.83-1.59-12.306,1.945-17.078c-4.685,4.456-6.329,11.532-3.59,17.797
		c2.737,6.268,9.048,9.865,15.499,9.456C29.642,57.331,24.238,53.636,21.691,47.803z"/>
	<path fill="#FFFFFF" d="M30.674,54.641h3.48V40.943h6.447v13.697h3.519c-0.816,0-1.441-0.877-1.441-1.993V26.75h-7.059
		l-3.506,1.952c-1.151,0.438-2.4,0.796-3.504,1.036v2.709l3.504-0.479v20.679C32.113,53.843,31.539,54.641,30.674,54.641z"/>
	<polygon fill="#E43313" points="40.003,41.26 36.125,42.906 36.125,52.891 40.003,54.641 	"/>
	<g>
		<g>
			<path fill="#B30102" d="M19.476,33.272c0-0.15-0.122-0.271-0.271-0.271s-0.271,0.122-0.271,0.271
				c0,1.445-1.175,2.621-2.621,2.621c-1.445,0-2.621-1.176-2.621-2.621c0-0.15-0.122-0.271-0.27-0.271
				c-0.151,0-0.271,0.122-0.271,0.271c0,1.654,1.274,3.014,2.892,3.152v1.223h-1.464c-0.15,0-0.271,0.121-0.271,0.271
				c0,0.149,0.122,0.27,0.271,0.27h3.47c0.151,0,0.271-0.121,0.271-0.27c0-0.15-0.121-0.271-0.271-0.271h-1.464v-1.223
				C18.202,36.287,19.476,34.926,19.476,33.272L19.476,33.272z M19.476,33.272"/>
			<path fill="#B30102" d="M17.325,33.544c-0.149,0-0.27-0.122-0.27-0.271c0-0.15,0.121-0.271,0.27-0.271h0.995v-0.614h-1.284
				c-0.149,0-0.27-0.121-0.27-0.271s0.121-0.271,0.27-0.271h1.284V31.23h-0.995c-0.149,0-0.27-0.121-0.27-0.271
				c0-0.149,0.121-0.271,0.27-0.271h0.988c-0.082-0.98-0.899-1.753-1.891-1.753h-0.218c-0.992,0-1.809,0.773-1.891,1.753h0.988
				c0.149,0,0.27,0.122,0.27,0.271c0,0.15-0.121,0.271-0.27,0.271h-0.995v0.616h1.283c0.149,0,0.271,0.121,0.271,0.271
				s-0.122,0.271-0.271,0.271h-1.283v0.614h0.995c0.149,0,0.27,0.122,0.27,0.271c0,0.149-0.121,0.271-0.27,0.271h-0.988
				c0.083,0.971,0.9,1.735,1.891,1.735h0.218c0.992,0,1.808-0.764,1.891-1.735H17.325z M17.325,33.544"/>
		</g>
	</g>
	<path fill="#09A33A" d="M65.608,35.489c0-1.955-1.584-3.539-3.539-3.539c-1.956,0-3.539,1.584-3.539,3.539
		c0,1.956,1.583,3.541,3.539,3.541h3.539v-0.59h-1.584C65.013,37.783,65.608,36.676,65.608,35.489L65.608,35.489z M63.803,37.875
		c-0.396,0.287-0.947,0.2-1.236-0.196c-0.287-0.396-0.199-0.948,0.195-1.235c0.396-0.288,0.948-0.2,1.236,0.196
		S64.198,37.589,63.803,37.875L63.803,37.875z M63.758,34.01c0.465-0.151,0.965,0.104,1.116,0.568
		c0.151,0.465-0.103,0.964-0.567,1.114c-0.466,0.151-0.964-0.104-1.115-0.567C63.04,34.66,63.295,34.16,63.758,34.01L63.758,34.01z
		 M62.069,32.54c0.488,0,0.886,0.396,0.886,0.885c0,0.489-0.397,0.885-0.886,0.885s-0.885-0.396-0.885-0.885
		C61.185,32.936,61.581,32.54,62.069,32.54L62.069,32.54z M59.265,34.578c0.151-0.465,0.649-0.719,1.115-0.568
		c0.463,0.15,0.718,0.65,0.567,1.115c-0.152,0.464-0.65,0.719-1.116,0.567C59.366,35.542,59.113,35.043,59.265,34.578L59.265,34.578
		z M61.571,37.679c-0.288,0.396-0.842,0.483-1.236,0.196c-0.396-0.287-0.483-0.84-0.195-1.236c0.288-0.395,0.84-0.483,1.236-0.196
		C61.771,36.731,61.858,37.284,61.571,37.679L61.571,37.679z M61.774,35.489c0-0.162,0.132-0.294,0.295-0.294
		c0.162,0,0.294,0.132,0.294,0.294c0,0.164-0.132,0.295-0.294,0.295C61.906,35.784,61.774,35.652,61.774,35.489L61.774,35.489z
		 M61.774,35.489"/>
	<path fill-rule="evenodd" clip-rule="evenodd" fill="#00152C" d="M51.258,62.17c-0.02-0.061-0.008-0.122-0.01-0.182
		c0-0.04-0.01-0.083,0.01-0.123C51.263,61.966,51.263,62.068,51.258,62.17z"/>
	<path fill-rule="evenodd" clip-rule="evenodd" fill="#00152C" d="M54.353,61.482c-0.01,0.012-0.024,0.01-0.046,0.004
		c0.014-0.002,0.022-0.004,0.029-0.007C54.342,61.482,54.347,61.482,54.353,61.482z"/>
	<path fill-rule="evenodd" clip-rule="evenodd" fill="#00152C" d="M51.2,62.966c-0.013-0.012-0.012-0.024-0.006-0.047
		c0.003,0.016,0.006,0.022,0.007,0.03C51.201,62.954,51.2,62.961,51.2,62.966z"/>
	<g>
		<g>
			<g>
				<g>
					<path fill-rule="evenodd" clip-rule="evenodd" fill="#0151A3" d="M55.476,61.771c-0.047-0.159-0.141-0.229-0.306-0.233
						c-0.113-0.003-0.228-0.008-0.34-0.013c-0.159-0.007-0.318-0.028-0.478-0.042c-0.01,0.009-0.022,0.002-0.034,0.007
						c0.007-0.005,0.015-0.001,0.018-0.01c-0.01-0.002-0.018-0.005-0.027-0.007c-0.178-0.023-0.353-0.057-0.526-0.096
						c-0.369-0.078-0.722-0.206-1.072-0.343c-0.485-0.19-0.936-0.443-1.359-0.745c-0.015-0.01-0.026-0.029-0.05-0.024
						c0.04,0.184,0.069,0.366,0.095,0.551c0.037,0.262,0.063,0.527,0.073,0.791c0.003,0.031,0.011,0.044,0.044,0.043
						c0.098-0.002,0.194-0.002,0.291,0c0.099,0.001,0.178,0.058,0.209,0.147c0.032,0.094,0.007,0.188-0.073,0.251
						c-0.134,0.104-0.274,0.198-0.428,0.266c-0.029,0.013-0.039,0.026-0.04,0.057c-0.017,0.356-0.056,0.707-0.125,1.058
						c-0.032,0.163-0.067,0.325-0.115,0.486c-0.008,0.028-0.002,0.04,0.026,0.038c0.013,0,0.023,0.003,0.035,0.003
						c0.302,0.032,0.574,0.142,0.809,0.334c0.275,0.231,0.424,0.532,0.461,0.901c-0.023-0.023-0.037-0.038-0.051-0.054
						c-0.384-0.388-0.828-0.667-1.37-0.779c-0.04-0.009-0.051,0.002-0.065,0.037c-0.152,0.417-0.346,0.811-0.594,1.18
						c-0.016,0.023-0.014,0.039-0.001,0.062c0.19,0.374,0.63,0.544,1.034,0.4c0.762-0.271,1.433-0.697,2.021-1.25
						c0.762-0.718,1.335-1.569,1.778-2.513c0.057-0.125,0.112-0.253,0.168-0.379c0-0.039,0-0.079,0-0.118
						C55.481,61.775,55.478,61.773,55.476,61.771z M54.027,63.063c-0.002,0-0.004,0.001-0.007,0.001
						c0-0.007-0.002-0.016-0.002-0.022c-0.02,0.102-0.084,0.161-0.176,0.201c-0.15,0.066-0.304,0.106-0.465,0.055
						c-0.144-0.044-0.24-0.146-0.313-0.268c-0.12-0.197-0.178-0.418-0.213-0.644c-0.016-0.097,0.033-0.18,0.116-0.223
						c0.084-0.044,0.179-0.032,0.25,0.033c0.243,0.217,0.482,0.438,0.725,0.656c0.043,0.039,0.063,0.09,0.076,0.145
						c0.002-0.012-0.004-0.024,0.014-0.041C54.031,62.997,54.03,63.03,54.027,63.063z"/>
				</g>
			</g>
			<g>
				<g>
					<g>
						<path fill-rule="evenodd" clip-rule="evenodd" fill="#0151A3" d="M51.258,61.865c0.003-0.19-0.012-0.379-0.027-0.568
							c-0.042-0.508-0.13-1.008-0.259-1.501c-0.062-0.229-0.293-0.313-0.481-0.169c-0.764,0.582-1.621,0.958-2.554,1.177
							c-0.166,0.039-0.334,0.068-0.503,0.096c0.007,0.003,0.016,0.004,0.03,0.006c-0.022,0.008-0.034,0.012-0.047-0.003
							c-0.013,0.001-0.026,0-0.039,0.002c-0.233,0.032-0.468,0.052-0.703,0.058c-0.228,0.004-0.455,0.001-0.682-0.019
							c-0.159-0.014-0.274,0.065-0.326,0.218c-0.001,0.006-0.005,0.011-0.009,0.017c0,0.039,0,0.078,0,0.118
							c0.04,0.112,0.078,0.227,0.12,0.341c0.331,0.902,0.781,1.739,1.399,2.482c0.571,0.687,1.252,1.236,2.069,1.609
							c0.407,0.188,0.842,0.06,1.084-0.317c0.379-0.587,0.632-1.224,0.777-1.904c0.039-0.179,0.075-0.359,0.092-0.541
							c-0.01-0.01-0.005-0.021-0.006-0.031c0.001,0.005,0,0.011,0.007,0.015c0.016-0.058,0.017-0.116,0.022-0.174
							c0.02-0.202,0.037-0.403,0.034-0.605C51.25,62.068,51.25,61.966,51.258,61.865z M49.164,61.975c0,0.013,0,0.024,0,0.046
							C49.152,61.999,49.155,61.987,49.164,61.975z M48.423,62.318c0.008,0.012,0.007,0.023,0.004,0.037
							C48.411,62.344,48.426,62.33,48.423,62.318z M47.241,62.657c-0.155,0.016-0.275-0.121-0.24-0.272
							c0.031-0.129,0.081-0.25,0.171-0.35c0.126-0.14,0.288-0.18,0.468-0.156c0.255,0.033,0.474,0.152,0.686,0.289
							c0.062,0.04,0.086,0.104,0.086,0.178c-0.001,0.116-0.083,0.207-0.197,0.218C47.89,62.595,47.565,62.627,47.241,62.657z
							 M50.128,64.098c-0.165,0.187-0.371,0.307-0.605,0.387c-0.577,0.192-1.125-0.001-1.424-0.357
							c0.132,0.018,0.259,0.039,0.389,0.036c0.069-0.014,0.139-0.016,0.207,0c0.127,0.001,0.252-0.013,0.377-0.037
							c-0.009,0-0.016-0.003-0.031-0.005c0.021-0.007,0.035-0.011,0.048,0.002c0.183-0.023,0.355-0.08,0.524-0.151
							c0.287-0.124,0.546-0.286,0.78-0.493c0.013-0.011,0.024-0.021,0.047-0.04C50.396,63.696,50.293,63.911,50.128,64.098z
							 M50.376,61.735c-0.295,0.155-0.592,0.309-0.891,0.456c-0.145,0.072-0.312-0.038-0.312-0.204
							c-0.002-0.022,0.002-0.051,0.015-0.076c0.096-0.207,0.204-0.405,0.371-0.565c0.118-0.112,0.251-0.19,0.42-0.179
							c0.192,0.011,0.342,0.107,0.463,0.248C50.528,61.515,50.493,61.674,50.376,61.735z"/>
					</g>
				</g>
				<g>
					<path fill-rule="evenodd" clip-rule="evenodd" fill="#0151A3" d="M53.055,62.125c0.016-0.006,0.027-0.007,0.043,0
						C53.082,62.131,53.068,62.132,53.055,62.125z"/>
				</g>
			</g>
		</g>
	</g>
	<g>
		<g>
			<path fill="#FAB202" d="M20.602,58.233h-0.391c-0.217,0-0.392,0.176-0.392,0.392h1.174
				C20.994,58.409,20.818,58.233,20.602,58.233L20.602,58.233z M20.602,58.233"/>
			<path fill="#FAB202" d="M25.248,59.017h-1.306l-0.129-0.382c-0.08-0.239-0.302-0.401-0.555-0.401h-1.264
				c-0.253,0-0.478,0.162-0.557,0.401l-0.127,0.382h-1.308c-0.396,0-0.719,0.321-0.719,0.718v3.394c0,0.396,0.323,0.718,0.719,0.718
				h5.246c0.398,0,0.719-0.321,0.719-0.718v-3.394C25.967,59.338,25.646,59.017,25.248,59.017L25.248,59.017z M19.95,59.734
				c0-0.107,0.087-0.195,0.197-0.195h0.391c0.109,0,0.195,0.088,0.195,0.195c0,0.108-0.086,0.196-0.195,0.196h-0.391
				C20.037,59.931,19.95,59.843,19.95,59.734L19.95,59.734z M22.626,63.192c-1.043,0-1.894-0.849-1.894-1.892
				s0.851-1.893,1.894-1.893s1.892,0.85,1.892,1.893S23.669,63.192,22.626,63.192L22.626,63.192z M24.975,59.931
				c-0.109,0-0.196-0.088-0.196-0.196c0-0.107,0.087-0.195,0.196-0.195c0.108,0,0.195,0.088,0.195,0.195
				C25.17,59.843,25.083,59.931,24.975,59.931L24.975,59.931z M24.975,59.931"/>
			<path fill="#FAB202" d="M22.626,59.8c-0.828,0-1.501,0.674-1.501,1.501s0.673,1.501,1.501,1.501c0.829,0,1.5-0.674,1.5-1.501
				S23.455,59.8,22.626,59.8L22.626,59.8z M22.626,62.345c-0.576,0-1.044-0.469-1.044-1.044c0-0.576,0.468-1.044,1.044-1.044
				s1.043,0.468,1.043,1.044C23.669,61.876,23.202,62.345,22.626,62.345L22.626,62.345z M22.626,62.345"/>
			<path fill="#FAB202" d="M23.278,61.301c0,0.36-0.292,0.652-0.652,0.652c-0.361,0-0.652-0.292-0.652-0.652
				c0-0.359,0.291-0.652,0.652-0.652C22.986,60.648,23.278,60.941,23.278,61.301L23.278,61.301z M23.278,61.301"/>
		</g>
	</g>
</g>
<g>
	
		<text transform="matrix(1.3175 0 0 1 82.8813 51.123)" fill="#FFFFFF" font-family="'FranklinGothic-DemiCond'" font-size="41.3333">CHANCE</text>
</g>
</svg>
